<svg viewBox="0 0 93 81" fill="none" xmlns="http://www.w3.org/2000/svg"><path d="M74.658 40.348c0-18.824-15.242-34.083-34.043-34.083-18.8 0-34.043 15.259-34.043 34.083a33.956 33.956 0 0 0 6.338 19.81c.993-2.588 4.116-3.443 11.414-4.841l1.761-.336c1.943-.372 3.156-.635 4.036-.892v-4.694c-1.529-1.903-2.814-4.575-3.453-6.697-.975-1.2-1.456-3.219-1.945-6.112-.245-1.454-.345-2.81-.244-3.95.077-.868.26-1.689.587-2.395-1.378-13.05 3.527-18.534 15.141-19.826l.743-.007c12.815 1.166 17.207 6.126 16.14 19.74.376.835.521 1.835.503 2.877-.02 1.141-.262 2.489-.66 3.93-.365 1.316-.711 2.446-1.09 3.393h-4.54c.986 0 3.887-8.754 1.944-8.754 1.457-13.619-1.943-16.537-12.632-17.51-8.745.973-13.603 3.892-11.66 17.51-1.943 0 .043 8.754.972 8.754 0 .973 2.915 7.782 3.887 7.782v7.782c0 2.918-19.045 2.918-19.045 6.742 5.179 6.004 13.656 10.526 22.154 11.576v5.792C16.671 78.158.813 61.106.813 40.348.812 18.344 18.631.505 40.614.505c21.984 0 39.803 17.839 39.803 39.843h-5.76zM47.077 44h38.77c3.568 0 6.46 2.755 6.46 6.154v24.615c0 3.399-2.892 6.154-6.46 6.154h-38.77c-3.569 0-6.462-2.755-6.462-6.154V50.154c0-3.399 2.893-6.154 6.462-6.154zm-.314 3.692c-1.376 0-2.455 1.03-2.455 2.253v25.033c0 1.224 1.08 2.253 2.455 2.253H86.16c1.376 0 2.455-1.029 2.455-2.253V49.945c0-1.224-1.08-2.253-2.455-2.253H46.763zm9.545 14.77h-5.539a2.77 2.77 0 0 1-2.77-2.77v-5.538a2.77 2.77 0 0 1 2.77-2.77h5.539a2.77 2.77 0 0 1 2.769 2.77v5.538a2.77 2.77 0 0 1-2.77 2.77zm-.923-7.385h-3.693v3.692h3.693v-3.692zm8.967 11.077c-.876 0-1.583-.825-1.583-1.846 0-1.02.708-1.846 1.583-1.846H83.34c.875 0 1.582.827 1.582 1.846 0 1.02-.707 1.846-1.582 1.846H64.35zm0 7.385c-.876 0-1.583-.826-1.583-1.847 0-1.019.708-1.846 1.583-1.846H83.34c.875 0 1.582.827 1.582 1.846 0 1.021-.707 1.847-1.582 1.847H64.35z" fill="#444444"/></svg>
