<svg viewBox="0 0 90 74" fill="none" xmlns="http://www.w3.org/2000/svg"><path d="M73.896 33.308H71.97v-2.196c-2.1.55-4.716.95-6.498.95-1.788 0-3.825-.338-6.115-1.007l-1.822-.532 1.502-1.166c2.233-1.733 3.56-2.612 4.292-2.764 1.097-.227 2.77-.865 3.338-1.383a9.09 9.09 0 0 1 1.162-.87 5.777 5.777 0 0 1-.863-.724c-.482-.49-.931-.967-1.35-1.433-4.254 2.157-12.91 3.094-26.395 3.094-13.486 0-22.141-.937-26.395-3.094-.42.466-.868.942-1.35 1.433a5.75 5.75 0 0 1-.358.336c.718.414 1.356.856 1.797 1.258.569.518 2.24 1.156 3.338 1.383.733.152 2.06 1.03 4.292 2.764l1.502 1.166-1.822.532c-2.29.67-4.327 1.007-6.114 1.007-2.125 0-5.432-.567-7.64-1.282v12.707c0 3.067 2.369 5.607 5.41 5.803l2.52.16 6.918-6.962a5.761 5.761 0 0 1 4.086-1.703h8.792a9.813 9.813 0 0 0-.274 2.308v1.568h-8.518c-.51 0-1 .205-1.362.568l-4.498 4.526c5.645.32 10.442.534 14.378.64v5.818c-4.74-.126-10.68-.404-17.82-.833v2.85c0 2.142-1.724 3.878-3.852 3.878H4.545c-2.128 0-3.853-1.736-3.853-3.877V27.215c0-3.882 2.859-7.17 6.671-7.684a34.577 34.577 0 0 0 1.839-2.008H4.545c-1.284 0-1.284-1.292 0-3.877 2.569-1.292 4.495-1.938 5.78-1.938.587 0 1.175.203 1.762.608.058-.198.112-.401.164-.608C14.457 2.828 19.97.49 37.294.117c.727-.016 3.127-.016 3.853 0C58.47.49 63.985 2.829 66.191 11.707c.051.208.106.41.163.61.588-.406 1.175-.61 1.763-.61 1.284 0 3.21.647 5.78 1.94 1.284 2.584 1.284 3.876 0 3.876H69.24c.526.629 1.134 1.29 1.839 2.008 3.812.515 6.67 3.802 6.67 7.684v6.109a9.937 9.937 0 0 0-.566-.016h-3.287zm-58.63-14.23C18.857 20.538 26.978 21.4 39.22 21.4c12.243 0 20.363-.863 23.955-2.321-1.235-1.864-2.04-3.738-2.592-5.96-1.368-5.507-4.57-6.864-19.56-7.188-.645-.014-2.962-.014-3.605 0-14.991.324-18.193 1.681-19.561 7.187-.553 2.223-1.358 4.097-2.592 5.96zM71.97 29.112v-1.896c0-.97-.716-1.793-1.66-1.92a5.694 5.694 0 0 1-.19-.03c-.87.444-1.7.964-2.161 1.383-.89.81-2.833 1.553-4.242 1.844-.211.044-.878.456-1.9 1.194 1.345.292 2.563.437 3.655.437 1.753 0 4.563-.469 6.498-1.012zm-65.498-.37c1.772.682 5.495 1.382 7.639 1.382 1.09 0 2.31-.145 3.654-.437-1.022-.738-1.689-1.15-1.9-1.194-1.409-.291-3.35-1.033-4.242-1.844-.526-.479-1.535-1.09-2.535-1.567-.31.098-.63.17-.956.214a1.936 1.936 0 0 0-1.66 1.92v1.526zm5.779 26.4l-.738-.047a11.482 11.482 0 0 1-6.968-2.938v6.075h7.706v-3.09zM44.077 37h38.77c3.568 0 6.46 2.755 6.46 6.154v24.615c0 3.399-2.892 6.154-6.46 6.154h-38.77c-3.568 0-6.462-2.755-6.462-6.154V43.154c0-3.399 2.894-6.154 6.462-6.154zm-.314 3.692c-1.376 0-2.455 1.03-2.455 2.253v25.033c0 1.224 1.08 2.253 2.455 2.253H83.16c1.376 0 2.456-1.03 2.456-2.253V42.945c0-1.224-1.08-2.253-2.456-2.253H43.763zm9.545 14.77h-5.539A2.77 2.77 0 0 1 45 52.691v-5.538a2.77 2.77 0 0 1 2.77-2.77h5.538a2.77 2.77 0 0 1 2.769 2.77v5.538a2.77 2.77 0 0 1-2.77 2.77zm-.923-7.385h-3.693v3.692h3.693v-3.692zm8.967 11.077c-.875 0-1.583-.825-1.583-1.846 0-1.02.708-1.846 1.583-1.846H80.34c.875 0 1.582.827 1.582 1.846 0 1.02-.707 1.846-1.582 1.846H61.35zm0 7.384c-.875 0-1.583-.825-1.583-1.846 0-1.019.708-1.846 1.583-1.846H80.34c.875 0 1.582.827 1.582 1.846 0 1.021-.707 1.847-1.582 1.847H61.35z" fill="#444444"/></svg>
