<svg viewBox="0 0 90 90" fill="none" xmlns="http://www.w3.org/2000/svg"><path d="M29.703 69.876c2.196 5.793 5.104 10.331 8.355 13.048 2.252.41 4.572.624 6.942.624s4.69-.214 6.942-.624c3.252-2.717 6.159-7.255 8.355-13.048-4.709-1.18-9.868-1.836-15.297-1.836-5.43 0-10.588.656-15.297 1.836zm-1.15-3.363c5.085-1.302 10.635-2.017 16.447-2.017 5.812 0 11.362.716 16.447 2.017 1.768-5.752 2.874-12.48 3.03-19.74H25.523c.155 7.26 1.261 13.988 3.03 19.74zm-3.03-23.285h38.953c-.155-7.261-1.26-13.99-3.029-19.741-5.085 1.302-10.635 2.018-16.447 2.018-5.812 0-11.362-.716-16.447-2.018-1.768 5.752-2.874 12.48-3.03 19.74zm4.18-23.104c4.709 1.18 9.868 1.836 15.297 1.836 5.43 0 10.588-.656 15.297-1.835-2.196-5.794-5.103-10.332-8.355-13.05A38.773 38.773 0 0 0 45 6.453c-2.37 0-4.69.214-6.942.624-3.251 2.717-6.159 7.255-8.355 13.049zm41.038 53.57a48.82 48.82 0 0 0-7.026-2.846c-1.496 4-3.33 7.5-5.422 10.347a38.534 38.534 0 0 0 12.448-7.5zm2.646-2.615c5.936-6.458 9.697-14.948 10.12-24.307H68.023c-.154 7.546-1.29 14.606-3.168 20.723 3.065.984 5.926 2.19 8.533 3.584zm10.12-27.851c-.423-9.36-4.184-17.849-10.12-24.307-2.607 1.394-5.468 2.6-8.533 3.584 1.878 6.117 3.014 13.178 3.168 20.723h15.486zM70.742 16.306a38.537 38.537 0 0 0-12.448-7.5c2.092 2.846 3.926 6.347 5.422 10.346a48.81 48.81 0 0 0 7.026-2.846zm-51.482 0a48.804 48.804 0 0 0 7.026 2.846c1.496-4 3.33-7.5 5.422-10.346a38.537 38.537 0 0 0-12.448 7.5zm-2.646 2.615C10.677 25.38 6.916 33.87 6.493 43.228h15.485c.154-7.545 1.29-14.606 3.168-20.723-3.065-.984-5.926-2.19-8.533-3.584zM6.493 46.772c.423 9.36 4.184 17.849 10.12 24.307 2.607-1.394 5.468-2.6 8.533-3.584-1.878-6.117-3.014-13.178-3.168-20.723H6.492zm12.766 26.922a38.533 38.533 0 0 0 12.448 7.5c-2.091-2.846-3.926-6.346-5.422-10.346a48.815 48.815 0 0 0-7.026 2.846zM45 89.308C20.53 89.308.692 69.47.692 45S20.53.692 45 .692 89.308 20.53 89.308 45 69.47 89.308 45 89.308z" fill="#444444"/></svg>
